<?xml version="1.0" encoding="utf-8"?>
<!-- Generator: Adobe Illustrator 24.2.3, SVG Export Plug-In . SVG Version: 6.00 Build 0)  -->
<svg version="1.1" id="Layer_1" xmlns="http://www.w3.org/2000/svg" xmlns:xlink="http://www.w3.org/1999/xlink" x="0px" y="0px"
	 viewBox="0 0 1280 1024" style="enable-background:new 0 0 1280 1024;" xml:space="preserve">
<style type="text/css">
	.st0{fill:#FFFFFF;}
</style>
<circle cx="626.58" cy="458.71" r="339.77"/>
<g>
	<g>
		<path class="st0" d="M474.74,634.91l25.94-39.86c18.56,12.02,37.12,20.78,55.68,26.26c18.56,5.49,40.18,8.23,64.85,8.23
			c27.63,0,50.35-6.49,68.17-19.46c17.82-12.97,26.73-31.9,26.73-56.78c0-22.14-7.54-39.86-22.62-53.15
			c-15.08-13.29-39.81-26.15-74.18-38.59c-42.6-15.39-74.18-32.74-94.75-52.04c-20.56-19.3-30.84-44.76-30.84-76.4
			c0-37.12,13.34-67.17,40.02-90.16c26.68-22.98,61.74-34.48,105.19-34.48c20.25,0,40.07,2.17,59.47,6.49
			c19.4,4.33,39.43,11.34,60.11,21.04l-19.93,42.71c-17.29-8.01-34.12-13.81-50.46-17.4c-16.35-3.58-34.01-5.38-52.99-5.38
			c-27.21,0-48.72,6.38-64.54,19.14c-15.82,12.76-23.73,30.42-23.73,52.99c0,19.83,7.28,35.64,21.83,47.45
			c14.55,11.81,38.8,23.83,72.76,36.06c45.55,16.45,78.24,34.8,98.07,55.04c19.82,20.25,29.74,47.56,29.74,81.93
			c0,36.7-13.29,67.33-39.86,91.9c-26.57,24.57-63.9,36.85-111.99,36.85c-27,0-51.88-3.38-74.66-10.12
			C519.98,660.43,497.3,649.67,474.74,634.91z"/>
	</g>
</g>
</svg>
