<svg id="Layer_1" data-name="Layer 1" xmlns="http://www.w3.org/2000/svg" viewBox="0 0 525 525"><defs><style>.cls-1{fill:#fff;}</style></defs><circle cx="262.5" cy="262.5" r="262.5"/><path class="cls-1" d="M487.21,564.38l20-30.8a165.78,165.78,0,0,0,43,20.29q21.5,6.36,50.1,6.35,32,0,52.67-15t20.65-43.87q0-25.67-17.47-41.06T598.9,430.44q-49.36-17.83-73.2-40.2t-23.83-59q0-43,30.92-69.65t81.27-26.64a210.73,210.73,0,0,1,46,5,225.08,225.08,0,0,1,46.43,16.25l-15.4,33a178.54,178.54,0,0,0-79.92-17.6q-31.51,0-49.85,14.78T542.94,327.3q0,23,16.86,36.66T616,391.83q52.8,19.07,75.77,42.52t23,63.3q0,42.54-30.79,71t-86.52,28.48q-31.29,0-57.68-7.82T487.21,564.38Z" transform="translate(-342.03 -165.75)"/></svg>